<svg xmlns="http://www.w3.org/2000/svg" viewBox="0 0 461.94 516.9"><defs><style>.cls-1{fill:#fff}.cls-2,.cls-7{fill:none;stroke:#3f2975;stroke-linecap:round;stroke-linejoin:round}.cls-2{stroke-width:6px}.cls-3{fill:#0cf9c3}.cls-4{fill:#3f2975}.cls-6{fill:#d9d6e5}.cls-7{stroke-width:5px}</style></defs><g id="Layer_2" data-name="Layer 2"><g id="Layer_1-2" data-name="Layer 1"><path id="_Path_" data-name="&lt;Path&gt;" class="cls-1" d="M302.4 496.9a74.68 74.68 0 00-24.4-17.4V118.8l11.5-19.9A13.27 13.27 0 00278 79h-78.7A13.29 13.29 0 00186 92.3v387.3a77.45 77.45 0 00-25 17.4h-.3a8.6 8.6 0 00-8.6 8.6v7.4h159v-7.4a8.84 8.84 0 00-8.7-8.7z"/><path id="_Path_2" data-name="&lt;Path&gt;" class="cls-2" d="M301.4 496.9a74.68 74.68 0 00-24.4-17.4v-358a9.66 9.66 0 011.4-5l10.5-17A12.84 12.84 0 00278 79.9h-80.2A12.76 12.76 0 00185 92.7v386.8c-10 4.5-17.6 11.4-24 18.4h-.3a9.6 9.6 0 00-9.6 9.6v6.4h159v-8.4a8.82 8.82 0 00-8.7-8.6z"/><path id="_Path_3" data-name="&lt;Path&gt;" class="cls-3" d="M272.2 492.3l-8.2-3.7V204.9h-.2a19.2 19.2 0 00-37.6-5.5 9.31 9.31 0 00-5.2-1.5 9.57 9.57 0 00-9.2 7H200v283.6l-8.2 3.7a78.43 78.43 0 00-11.8 6.6h103.7a74.71 74.71 0 00-11.5-6.5z"/><path id="_Path_4" data-name="&lt;Path&gt;" class="cls-2" d="M272.2 492.3l-8.2-3.7V204.9h-.2a19.2 19.2 0 00-37.6-5.5 9.31 9.31 0 00-5.2-1.5 9.57 9.57 0 00-9.2 7H200v283.6l-8.2 3.7a78.43 78.43 0 00-11.8 6.6h103.7a74.71 74.71 0 00-11.5-6.5z"/><circle id="_Path_5" data-name="&lt;Path&gt;" class="cls-3" cx="218.5" cy="145.4" r="9.5"/><circle id="_Path_6" data-name="&lt;Path&gt;" class="cls-2" cx="218.5" cy="145.4" r="9.5"/><circle id="_Path_7" data-name="&lt;Path&gt;" class="cls-3" cx="228.5" cy="44.4" r="16.5"/><circle id="_Path_8" data-name="&lt;Path&gt;" class="cls-2" cx="228.5" cy="44.4" r="16.5"/><circle id="_Path_9" data-name="&lt;Path&gt;" class="cls-3" cx="249.5" cy="9.4" r="6.4"/><circle id="_Path_10" data-name="&lt;Path&gt;" class="cls-2" cx="249.5" cy="9.4" r="6.4"/><circle id="_Path_11" data-name="&lt;Path&gt;" class="cls-3" cx="246.5" cy="121.4" r="4"/><circle id="_Path_12" data-name="&lt;Path&gt;" class="cls-2" cx="246.5" cy="121.4" r="4"/><circle id="_Path_13" data-name="&lt;Path&gt;" class="cls-4" cx="233.8" cy="299.7" r="3.2"/><circle id="_Path_14" data-name="&lt;Path&gt;" class="cls-4" cx="228.6" cy="345.5" r="10"/><circle id="_Path_15" data-name="&lt;Path&gt;" class="cls-4" cx="241.6" cy="396.5" r="4.4"/><g><path id="_Path_16" data-name="&lt;Path&gt;" class="cls-1" d="M139.5 318.15v-150.3h-54v150.3c-47 12-82.5 55.7-82.5 107.2 0 36 17.8 67.5 44.5 88.5h132c26.7-21 43.5-52.5 43.5-88.5a110.86 110.86 0 00-83.5-107.2z"/><path id="_Path_17" data-name="&lt;Path&gt;" class="cls-2" d="M139.5 318.15v-150.3h-54v150.3c-47 12-82.5 55.7-82.5 107.2 0 36 17.8 67.5 44.5 88.5h132c26.7-21 43.5-52.5 43.5-88.5a110.86 110.86 0 00-83.5-107.2z"/><path id="_Path_18" data-name="&lt;Path&gt;" class="cls-3" d="M200.8 384.85h-26.7a10.83 10.83 0 00-21.6 0h-1.1a19 19 0 00-18.9-18 18.51 18.51 0 00-8.8 2.2 26.68 26.68 0 00-51.3 3.3 15.09 15.09 0 00-8.4-2.5 15.55 15.55 0 00-15.5 15H26.2a97 97 0 00-8.7 40 95.69 95.69 0 0034.8 74h122.3a96.47 96.47 0 0026.2-114z"/><path id="_Path_19" data-name="&lt;Path&gt;" class="cls-2" d="M200.8 384.85h-26.7a10.83 10.83 0 00-21.6 0h-1.1a19 19 0 00-18.9-18 18.51 18.51 0 00-8.8 2.2 26.68 26.68 0 00-51.3 3.3 15.09 15.09 0 00-8.4-2.5 15.55 15.55 0 00-15.5 15H26.2a97 97 0 00-8.7 40 95.69 95.69 0 0034.8 74h122.3a96.47 96.47 0 0026.2-114z"/><path id="_Path_20" data-name="&lt;Path&gt;" class="cls-2" d="M73.7 387.65a26.68 26.68 0 1150-18.6"/><path id="_Path_21" data-name="&lt;Path&gt;" class="cls-2" d="M115 378.45a19 19 0 0136.5 7.4"/><path id="_Path_22" data-name="&lt;Path&gt;" class="cls-2" d="M152.5 385.65a10.8 10.8 0 1121.6 0"/><path id="_Path_23" data-name="&lt;Path&gt;" fill="#d29c5e" d="M94 128.85h37v62H94z"/><path id="_Path_24" data-name="&lt;Path&gt;" class="cls-2" d="M94 128.85h37v62H94z"/><path id="_Path_25" data-name="&lt;Path&gt;" class="cls-6" d="M143 166.85H83a12 12 0 01-12-12 12 12 0 0112-12h60a12 12 0 0112 12 12 12 0 01-12 12z"/><path id="_Path_26" data-name="&lt;Path&gt;" class="cls-2" d="M143 166.85H83a12 12 0 01-12-12 12 12 0 0112-12h60a12 12 0 0112 12 12 12 0 01-12 12z"/><circle id="_Path_27" data-name="&lt;Path&gt;" class="cls-3" cx="128.3" cy="336.75" r="12.2"/><circle id="_Path_28" data-name="&lt;Path&gt;" class="cls-3" cx="115.5" cy="233.05" r="5.5"/><circle id="_Path_29" data-name="&lt;Path&gt;" class="cls-3" cx="105" cy="272.45" r="7"/><circle id="_Path_30" data-name="&lt;Path&gt;" class="cls-2" cx="128.3" cy="336.75" r="12.2"/><circle id="_Path_31" data-name="&lt;Path&gt;" class="cls-2" cx="115.5" cy="233.05" r="4"/><circle id="_Path_32" data-name="&lt;Path&gt;" class="cls-2" cx="105" cy="272.45" r="7"/><circle id="_Path_33" data-name="&lt;Path&gt;" class="cls-3" cx="165.8" cy="351.45" r="3"/><circle id="_Path_34" data-name="&lt;Path&gt;" class="cls-7" cx="165.8" cy="351.45" r="3"/><circle id="_Path_35" data-name="&lt;Path&gt;" class="cls-7" cx="147.8" cy="360.45" r=".8"/><circle id="_Path_36" data-name="&lt;Path&gt;" class="cls-4" cx="92.5" cy="449.85" r="3"/><circle id="_Path_37" data-name="&lt;Path&gt;" class="cls-4" cx="114.5" cy="473.85" r="6.4"/><circle id="_Path_38" data-name="&lt;Path&gt;" class="cls-4" cx="123.5" cy="438.85" r="3"/><circle id="_Path_39" data-name="&lt;Path&gt;" class="cls-4" cx="144.5" cy="470.85" r="3.4"/></g><g><path id="_Path_40" data-name="&lt;Path&gt;" class="cls-6" d="M373.2 217.85h-63.3a12 12 0 01-12-12 12 12 0 0112-12h63.3a12 12 0 0112 12 12 12 0 01-12 12z"/><path id="_Path_41" data-name="&lt;Path&gt;" class="cls-2" d="M373.2 217.85h-63.3a12 12 0 01-12-12 12 12 0 0112-12h63.3a12 12 0 0112 12 12 12 0 01-12 12z"/><path id="_Path_42" data-name="&lt;Path&gt;" class="cls-1" d="M368.5 345.85v-128h-54v128l-87.6 137.3a19.89 19.89 0 0016.7 30.7h195.1c15.8 0 25.6-17.4 17.1-30.7z"/><path id="_Path_43" data-name="&lt;Path&gt;" class="cls-2" d="M368.5 345.85v-128h-54v128l-87.6 137.3a19.89 19.89 0 0016.7 30.7h195.1c15.8 0 25.6-17.4 17.1-30.7z"/><path id="_Path_44" data-name="&lt;Path&gt;" class="cls-3" d="M443.9 490.55l-35.2-55.4c-3.7-8.8-11.7-14.8-21-14.8a21.43 21.43 0 00-12.8 4.3 22.13 22.13 0 00-16.2-7.3c-8.8 0-16.5 5.5-20.4 13.5h-4.2a21.68 21.68 0 00-32.8 0h-1.8a21.22 21.22 0 01-10.9 3 21.49 21.49 0 01-10.9-3h-1l-38.1 59.7a5.83 5.83 0 004.9 9.2h195.1a6.06 6.06 0 005.4-3.1 5.77 5.77 0 00-.1-6.1z"/><path id="_Path_45" data-name="&lt;Path&gt;" class="cls-2" d="M443.9 490.55l-35.2-55.4c-3.7-8.8-11.7-14.8-21-14.8a21.43 21.43 0 00-12.8 4.3 22.13 22.13 0 00-16.2-7.3c-8.8 0-16.5 5.5-20.4 13.5h-4.2a21.68 21.68 0 00-32.8 0h-1.8a21.22 21.22 0 01-10.9 3 21.49 21.49 0 01-10.9-3h-1l-38.1 59.7a5.83 5.83 0 004.9 9.2h195.1a6.06 6.06 0 005.4-3.1 5.77 5.77 0 00-.1-6.1z"/><circle id="_Path_46" data-name="&lt;Path&gt;" class="cls-3" cx="331.2" cy="391.35" r="10"/><circle id="_Path_47" data-name="&lt;Path&gt;" class="cls-2" cx="331.2" cy="391.35" r="10"/><circle id="_Path_48" data-name="&lt;Path&gt;" class="cls-3" cx="365.8" cy="397.95" r="6.6"/><circle id="_Path_49" data-name="&lt;Path&gt;" class="cls-2" cx="365.8" cy="397.95" r="6.6"/><circle id="_Path_50" data-name="&lt;Path&gt;" class="cls-3" cx="344.7" cy="336.65" r="5.2"/><circle id="_Path_51" data-name="&lt;Path&gt;" class="cls-2" cx="344.7" cy="336.65" r="5.2"/><circle id="_Path_52" data-name="&lt;Path&gt;" class="cls-4" cx="327.5" cy="453.85" r="6.4"/><circle id="_Path_53" data-name="&lt;Path&gt;" class="cls-4" cx="369.3" cy="468.65" r="3.2"/><circle id="_Path_54" data-name="&lt;Path&gt;" class="cls-2" cx="349.6" cy="277.45" r="2.1"/><circle id="_Path_55" data-name="&lt;Path&gt;" class="cls-2" cx="333.6" cy="230.45" r="2.1"/></g></g></g></svg>
